<?xml version="1.0" encoding="UTF-8" standalone="no"?>
<svg
   xmlns:dc="http://purl.org/dc/elements/1.1/"
   xmlns:cc="http://creativecommons.org/ns#"
   xmlns:rdf="http://www.w3.org/1999/02/22-rdf-syntax-ns#"
   xmlns:svg="http://www.w3.org/2000/svg"
   xmlns="http://www.w3.org/2000/svg"
   version="1.1"
   id="svg2"
   viewBox="0 0 115.01107 36.776527"
   height="10.379153mm"
   width="32.458679mm">
  <defs
     id="defs4">
    <filter
       id="filter4428"
       style="color-interpolation-filters:sRGB">
      <feFlood
         id="feFlood4430"
         result="flood"
         flood-color="rgb(0,0,0)"
         flood-opacity="0.498039" />
      <feComposite
         id="feComposite4432"
         result="composite1"
         operator="out"
         in2="SourceGraphic"
         in="flood" />
      <feGaussianBlur
         id="feGaussianBlur4434"
         result="blur"
         stdDeviation="3"
         in="composite1" />
      <feOffset
         id="feOffset4436"
         result="offset"
         dy="1"
         dx="1" />
      <feComposite
         id="feComposite4438"
         result="composite2"
         operator="in"
         in2="SourceGraphic"
         in="offset" />
    </filter>
    <filter
       id="filter4608"
       style="color-interpolation-filters:sRGB">
      <feFlood
         id="feFlood4610"
         result="flood"
         flood-color="rgb(0,0,0)"
         flood-opacity="0.498039" />
      <feComposite
         id="feComposite4612"
         result="composite1"
         operator="in"
         in2="SourceGraphic"
         in="flood" />
      <feGaussianBlur
         id="feGaussianBlur4614"
         result="blur"
         stdDeviation="3"
         in="composite1" />
      <feOffset
         id="feOffset4616"
         result="offset"
         dy="1"
         dx="1" />
      <feComposite
         id="feComposite4618"
         result="composite2"
         operator="over"
         in2="offset"
         in="SourceGraphic" />
    </filter>
  </defs>
  <metadata
     id="metadata7">
    <rdf:RDF>
      <cc:Work
         rdf:about="">
        <dc:format>image/svg+xml</dc:format>
        <dc:type
           rdf:resource="http://purl.org/dc/dcmitype/StillImage" />
        <dc:title></dc:title>
      </cc:Work>
    </rdf:RDF>
  </metadata>
  <g
     transform="translate(-99.074821,-62.591863)"
     id="layer1">
    <g
       transform="matrix(0.74838169,0,0,0.74838169,39.398484,20.376083)"
       id="g4620">
      <text
         xml:space="preserve"
         style="font-style:normal;font-weight:normal;font-size:40px;line-height:125%;font-family:sans-serif;letter-spacing:0px;word-spacing:0px;fill:#ffffff;fill-opacity:1;stroke:none;stroke-width:1px;stroke-linecap:butt;stroke-linejoin:miter;stroke-opacity:1;filter:url(#filter4608)"
         x="92.097931"
         y="88.331299"
         id="text4136"><tspan
           id="tspan4138"
           x="92.097931"
           y="88.331299"
           style="font-style:normal;font-variant:normal;font-weight:bold;font-stretch:normal;font-family:'Liberation Sans';-inkscape-font-specification:'Liberation Sans Bold';fill:#ffffff">Tienda</tspan></text>
      <g
         style="font-style:normal;font-weight:normal;font-size:13.91364288px;line-height:125%;font-family:sans-serif;letter-spacing:0px;word-spacing:0px;fill:#ffffff;fill-opacity:1;stroke:none;stroke-width:1px;stroke-linecap:butt;stroke-linejoin:miter;stroke-opacity:1"
         id="text4440">
        <path
           d="m 111.53413,97.833066 q 0,1.120972 -0.3329,2.038131 -0.33289,0.917163 -0.95792,1.569363 -0.62503,0.6522 -1.5286,1.00548 -0.89678,0.35327 -2.03134,0.35327 -1.20249,0 -2.10606,-0.36686 -0.89678,-0.37366 -1.50143,-1.03265 -0.60464,-0.66579 -0.91036,-1.576159 -0.29893,-0.910366 -0.29893,-1.990575 0,-1.120972 0.31251,-2.024544 0.31931,-0.903572 0.93075,-1.535392 0.61823,-0.638615 1.51501,-0.978303 0.90357,-0.346483 2.0721,-0.346483 1.16853,0 2.06531,0.346483 0.90357,0.346482 1.51501,0.985097 0.61823,0.638614 0.93754,1.542186 0.31931,0.896777 0.31931,2.010956 z m -2.04493,0 q 0,-0.754109 -0.18343,-1.358754 -0.17664,-0.61144 -0.52991,-1.046241 -0.35328,-0.434802 -0.8764,-0.66579 -0.51633,-0.237782 -1.2025,-0.237782 -0.69976,0 -1.22967,0.237782 -0.52312,0.230988 -0.8764,0.66579 -0.35327,0.434801 -0.52991,1.046241 -0.17664,0.604645 -0.17664,1.358754 0,0.747315 0.17664,1.372341 0.18343,0.618234 0.53671,1.066623 0.35327,0.44839 0.87639,0.69976 0.52312,0.25137 1.20929,0.25137 0.73373,0 1.26365,-0.25137 0.52991,-0.25817 0.8696,-0.70655 0.34648,-0.455187 0.50953,-1.07342 0.16305,-0.625027 0.16305,-1.358754 z"
           style="font-style:normal;font-variant:normal;font-weight:bold;font-stretch:normal;font-family:'Liberation Sans';-inkscape-font-specification:'Liberation Sans Bold';fill:#ffffff"
           id="path4474" />
        <path
           d="m 120.03993,98.954038 q 0,0.835634 -0.16985,1.542182 -0.16305,0.70656 -0.50953,1.21609 -0.34648,0.50953 -0.88319,0.80166 -0.52991,0.28534 -1.25685,0.28534 -0.3261,0 -0.6522,-0.0679 -0.31931,-0.0679 -0.61144,-0.2174 -0.29213,-0.15625 -0.5435,-0.40083 -0.24458,-0.25137 -0.42121,-0.61823 l -0.0408,0 q 0.007,0.034 0.0136,0.16984 0.007,0.13588 0.0136,0.31931 0.007,0.17664 0.007,0.38045 0.007,0.19702 0.007,0.36686 l 0,2.81942 -1.90905,0 0,-8.546564 q 0,-0.563883 -0.0204,-1.005478 -0.0136,-0.441596 -0.034,-0.686171 l 1.8547,0 q 0.0136,0.04756 0.0272,0.183432 0.0204,0.135875 0.0272,0.312513 0.0136,0.176638 0.0204,0.366864 0.007,0.190225 0.007,0.332894 l 0.0272,0 q 0.34648,-0.726933 0.95112,-1.039447 0.60465,-0.312513 1.39952,-0.312513 0.69976,0 1.20929,0.285338 0.50953,0.285339 0.83564,0.788078 0.33289,0.502739 0.48915,1.202497 0.16305,0.692965 0.16305,1.521805 z m -1.99058,0 q 0,-1.256848 -0.38045,-1.861493 -0.38045,-0.61144 -1.13456,-0.61144 -0.28534,0 -0.57067,0.122288 -0.27855,0.115494 -0.50274,0.407626 -0.2174,0.285339 -0.36007,0.77449 -0.13588,0.482358 -0.13588,1.222879 0,0.72014 0.13588,1.202502 0.13587,0.47556 0.35327,0.7609 0.2242,0.28534 0.50274,0.40762 0.27855,0.1155 0.56388,0.1155 0.36687,0 0.65221,-0.14267 0.28533,-0.14946 0.47556,-0.45518 0.19702,-0.31252 0.29893,-0.79487 0.1019,-0.482362 0.1019,-1.148152 z"
           style="font-style:normal;font-variant:normal;font-weight:bold;font-stretch:normal;font-family:'Liberation Sans';-inkscape-font-specification:'Liberation Sans Bold';fill:#ffffff"
           id="path4476" />
        <path
           d="m 124.59855,102.79931 q -0.79487,0 -1.43349,-0.23099 -0.63182,-0.23778 -1.08021,-0.71334 -0.44839,-0.48236 -0.68617,-1.2025 -0.23778,-0.726933 -0.23778,-1.698442 0,-1.053035 0.27854,-1.773174 0.28534,-0.72014 0.76091,-1.161735 0.48235,-0.448389 1.10738,-0.645408 0.62503,-0.19702 1.31799,-0.19702 0.8696,0 1.48104,0.30572 0.61824,0.298926 1.01228,0.842428 0.39403,0.543501 0.57747,1.304404 0.18343,0.754108 0.18343,1.671267 l 0,0.05435 -4.71488,0 q 0,0.461977 0.0815,0.86281 0.0815,0.39404 0.26495,0.68617 0.18344,0.28534 0.47557,0.45518 0.29213,0.16305 0.70655,0.16305 0.50274,0 0.82205,-0.2106 0.3193,-0.2174 0.45518,-0.66579 l 1.80035,0.15625 q -0.12229,0.31252 -0.34648,0.66579 -0.2174,0.35328 -0.58427,0.65221 -0.36686,0.29213 -0.91716,0.48915 -0.5435,0.19022 -1.32478,0.19022 z m 0,-6.420111 q -0.29214,0 -0.5503,0.101906 -0.25137,0.09511 -0.44159,0.312514 -0.18344,0.210607 -0.29893,0.550295 -0.11549,0.339689 -0.12908,0.815253 l 2.85338,0 q -0.0543,-0.889984 -0.428,-1.331579 -0.37366,-0.448389 -1.00548,-0.448389 z"
           style="font-style:normal;font-variant:normal;font-weight:bold;font-stretch:normal;font-family:'Liberation Sans';-inkscape-font-specification:'Liberation Sans Bold';fill:#ffffff"
           id="path4478" />
        <path
           d="m 134.09624,102.66344 0,-4.123822 q 0,-0.428008 -0.0679,-0.781284 -0.0679,-0.36007 -0.22419,-0.611439 -0.15626,-0.258163 -0.40763,-0.400833 -0.25137,-0.142669 -0.61144,-0.142669 -0.34648,0 -0.63182,0.156257 -0.27854,0.149463 -0.48236,0.434801 -0.20381,0.278545 -0.3193,0.672584 -0.1087,0.387245 -0.1087,0.856015 l 0,3.94039 -1.90905,0 0,-5.706771 q 0,-0.237782 -0.007,-0.489151 0,-0.25137 -0.0136,-0.475564 -0.007,-0.230988 -0.0136,-0.407626 -0.007,-0.183432 -0.0204,-0.271751 l 1.82073,0 q 0.0136,0.08152 0.0272,0.264957 0.0136,0.176638 0.0272,0.394039 0.0136,0.2174 0.0204,0.434801 0.0136,0.217401 0.0136,0.366863 l 0.0272,0 q 0.38725,-0.842427 0.97151,-1.222878 0.58426,-0.380451 1.39272,-0.380451 0.66579,0 1.12098,0.2174 0.46197,0.217401 0.74731,0.597852 0.29213,0.380451 0.42121,0.896778 0.12909,0.516326 0.12909,1.114178 l 0,4.667324 -1.90226,0 z"
           style="font-style:normal;font-variant:normal;font-weight:bold;font-stretch:normal;font-family:'Liberation Sans';-inkscape-font-specification:'Liberation Sans Bold';fill:#ffffff"
           id="path4480" />
        <path
           d="m 149.46375,99.905166 q 0,0.652204 -0.23778,1.188914 -0.23779,0.52991 -0.74052,0.91036 -0.49595,0.38045 -1.27723,0.59106 -0.77449,0.20381 -1.84791,0.20381 -0.95113,0 -1.67806,-0.16984 -0.72693,-0.16985 -1.25005,-0.50274 -0.51633,-0.3329 -0.84243,-0.82205 -0.31931,-0.49594 -0.46198,-1.13456 l 1.93623,-0.319304 q 0.0815,0.319304 0.23778,0.584264 0.15626,0.26496 0.42801,0.46198 0.27854,0.19022 0.68617,0.29892 0.41442,0.10191 0.99868,0.10191 1.01907,0 1.55577,-0.30572 0.54351,-0.31251 0.54351,-0.97151 0,-0.394039 -0.2174,-0.645408 -0.2174,-0.25137 -0.57747,-0.41442 -0.36007,-0.163051 -0.82884,-0.271751 -0.46878,-0.1087 -0.97831,-0.210607 -0.40762,-0.09511 -0.81525,-0.197019 -0.40763,-0.101907 -0.78128,-0.244576 -0.36687,-0.142669 -0.68617,-0.339689 -0.31931,-0.197019 -0.55709,-0.482357 -0.23099,-0.292133 -0.36687,-0.679377 -0.12908,-0.387245 -0.12908,-0.910366 0,-0.713346 0.28534,-1.222879 0.28534,-0.509532 0.78808,-0.82884 0.50953,-0.326101 1.20929,-0.475564 0.69976,-0.149463 1.5286,-0.149463 0.93754,0 1.60333,0.149463 0.67258,0.14267 1.12097,0.441596 0.45518,0.298925 0.71334,0.754108 0.26496,0.448389 0.38725,1.053035 l -1.94302,0.264957 q -0.14946,-0.618234 -0.61144,-0.930747 -0.45518,-0.312513 -1.3112,-0.312513 -0.52991,0 -0.88319,0.09511 -0.34648,0.08832 -0.55709,0.244576 -0.20381,0.156257 -0.29213,0.366864 -0.0883,0.203813 -0.0883,0.434801 0,0.353276 0.16985,0.584264 0.16984,0.224195 0.47556,0.380452 0.30572,0.149463 0.72693,0.258163 0.42801,0.101906 0.93754,0.210607 0.44839,0.09511 0.88999,0.203813 0.44159,0.101906 0.84243,0.244576 0.40083,0.142669 0.74731,0.346482 0.34648,0.203813 0.59785,0.502739 0.25817,0.292132 0.40084,0.699758 0.14946,0.407627 0.14946,0.964716 z"
           style="font-style:normal;font-variant:normal;font-weight:bold;font-stretch:normal;font-family:'Liberation Sans';-inkscape-font-specification:'Liberation Sans Bold';fill:#ffffff"
           id="path4482" />
        <path
           d="m 157.97635,98.981213 q 0,0.842428 -0.23779,1.542187 -0.23098,0.69976 -0.69975,1.20929 -0.46878,0.50274 -1.16853,0.78808 -0.69976,0.27854 -1.63051,0.27854 -0.89678,0 -1.58295,-0.27854 -0.68617,-0.27855 -1.15494,-0.78129 -0.46197,-0.50274 -0.69976,-1.20249 -0.23778,-0.706556 -0.23778,-1.555777 0,-0.822046 0.2242,-1.515011 0.23098,-0.699758 0.69296,-1.209291 0.46198,-0.509533 1.16174,-0.794871 0.69975,-0.285339 1.63729,-0.285339 0.99189,0 1.69165,0.285339 0.69976,0.285338 1.14136,0.794871 0.44839,0.502739 0.6522,1.202497 0.21061,0.692965 0.21061,1.521805 z m -1.99737,0 q 0,-1.311198 -0.42801,-1.902256 -0.42801,-0.591058 -1.24326,-0.591058 -0.84243,0 -1.29082,0.597852 -0.44839,0.597852 -0.44839,1.895462 0,0.658996 0.1155,1.134557 0.12229,0.47557 0.33969,0.78129 0.2174,0.30572 0.52312,0.45518 0.30572,0.14267 0.67258,0.14267 0.42121,0 0.74731,-0.14267 0.3329,-0.14946 0.55709,-0.45518 0.2242,-0.30572 0.33969,-0.78129 0.1155,-0.475561 0.1155,-1.134557 z"
           style="font-style:normal;font-variant:normal;font-weight:bold;font-stretch:normal;font-family:'Liberation Sans';-inkscape-font-specification:'Liberation Sans Bold';fill:#ffffff"
           id="path4484" />
        <path
           d="m 161.2985,95.312577 0,4.123819 q 0,0.428007 0.0679,0.788074 0.0679,0.35328 0.22419,0.61144 0.15626,0.25137 0.40084,0.39404 0.25136,0.14267 0.61143,0.14267 0.34649,0 0.62503,-0.14946 0.28534,-0.15626 0.48915,-0.4348 0.20382,-0.28534 0.31252,-0.67259 0.11549,-0.394036 0.11549,-0.862806 l 0,-3.940387 1.90905,0 0,5.706763 q 0,0.23099 0,0.48916 0.007,0.25137 0.0136,0.48235 0.0136,0.2242 0.0204,0.40763 0.0136,0.17664 0.0204,0.26496 l -1.82073,0 q -0.007,-0.0815 -0.0272,-0.25817 -0.0136,-0.18343 -0.0272,-0.40083 -0.007,-0.2174 -0.0204,-0.4348 -0.007,-0.2174 -0.007,-0.36686 l -0.034,0 q -0.38046,0.83563 -0.97151,1.21608 -0.58427,0.38045 -1.39273,0.38045 -0.65899,0 -1.12097,-0.2174 -0.46198,-0.2174 -0.75411,-0.59106 -0.28534,-0.38045 -0.41442,-0.89677 -0.12908,-0.51633 -0.12908,-1.114183 l 0,-4.66732 1.90905,0 z"
           style="font-style:normal;font-variant:normal;font-weight:bold;font-stretch:normal;font-family:'Liberation Sans';-inkscape-font-specification:'Liberation Sans Bold';fill:#ffffff"
           id="path4486" />
        <path
           d="m 168.00395,102.66344 0,-5.625245 q 0,-0.237782 -0.007,-0.502739 0,-0.264958 -0.0136,-0.50274 -0.007,-0.244575 -0.0136,-0.434801 -0.007,-0.197019 -0.0204,-0.285338 l 1.82073,0 q 0.0136,0.08152 0.0272,0.285338 0.0136,0.197019 0.0272,0.434801 0.0136,0.237782 0.0204,0.475564 0.0136,0.230989 0.0136,0.373658 l 0.0272,0 q 0.14267,-0.400833 0.28534,-0.713346 0.14267,-0.319307 0.3329,-0.536708 0.19702,-0.224194 0.46877,-0.339689 0.27175,-0.122287 0.67258,-0.122287 0.16984,0 0.3329,0.03397 0.16984,0.02717 0.25816,0.06794 l 0,1.596536 q -0.18343,-0.04076 -0.37366,-0.06794 -0.18343,-0.03397 -0.44159,-0.03397 -0.71335,0 -1.11418,0.57747 -0.39404,0.577471 -0.39404,1.712031 l 0,3.607495 -1.90905,0 z"
           style="font-style:normal;font-variant:normal;font-weight:bold;font-stretch:normal;font-family:'Liberation Sans';-inkscape-font-specification:'Liberation Sans Bold';fill:#ffffff"
           id="path4488" />
        <path
           d="m 176.47578,102.79931 q -0.87639,0 -1.53539,-0.27175 -0.6522,-0.27175 -1.087,-0.76769 -0.4348,-0.49595 -0.6522,-1.18891 -0.2174,-0.699763 -0.2174,-1.542191 0,-0.917159 0.23778,-1.630505 0.23778,-0.720139 0.68617,-1.209291 0.44839,-0.495945 1.10059,-0.754108 0.659,-0.258164 1.49463,-0.258164 0.71335,0 1.26364,0.190226 0.55709,0.190225 0.95792,0.52312 0.40084,0.326101 0.64541,0.77449 0.25137,0.448389 0.34648,0.964716 l -1.92263,0.09511 q -0.0815,-0.563883 -0.40763,-0.896777 -0.3261,-0.339689 -0.92395,-0.339689 -0.7677,0 -1.12098,0.631821 -0.35327,0.631821 -0.35327,1.834318 0,2.540874 1.50142,2.540874 0.5435,0 0.91037,-0.33969 0.36686,-0.34648 0.45518,-1.02586 l 1.91584,0.0883 q -0.0679,0.50953 -0.31251,0.9783 -0.23778,0.46198 -0.6522,0.82205 -0.40763,0.35327 -0.99189,0.57068 -0.58427,0.2106 -1.33838,0.2106 z"
           style="font-style:normal;font-variant:normal;font-weight:bold;font-stretch:normal;font-family:'Liberation Sans';-inkscape-font-specification:'Liberation Sans Bold';fill:#ffffff"
           id="path4490" />
        <path
           d="m 184.16633,102.79931 q -0.79487,0 -1.43349,-0.23099 -0.63182,-0.23778 -1.0802,-0.71334 -0.44839,-0.48236 -0.68618,-1.2025 -0.23778,-0.726933 -0.23778,-1.698442 0,-1.053035 0.27855,-1.773174 0.28534,-0.72014 0.7609,-1.161735 0.48236,-0.448389 1.10738,-0.645408 0.62503,-0.19702 1.318,-0.19702 0.8696,0 1.48104,0.30572 0.61823,0.298926 1.01227,0.842428 0.39404,0.543501 0.57747,1.304404 0.18343,0.754108 0.18343,1.671267 l 0,0.05435 -4.71488,0 q 0,0.461977 0.0815,0.86281 0.0815,0.39404 0.26496,0.68617 0.18343,0.28534 0.47556,0.45518 0.29213,0.16305 0.70655,0.16305 0.50274,0 0.82205,-0.2106 0.31931,-0.2174 0.45518,-0.66579 l 1.80035,0.15625 q -0.12229,0.31252 -0.34648,0.66579 -0.2174,0.35328 -0.58427,0.65221 -0.36686,0.29213 -0.91715,0.48915 -0.54351,0.19022 -1.32479,0.19022 z m 0,-6.420111 q -0.29213,0 -0.5503,0.101906 -0.25136,0.09511 -0.44159,0.312514 -0.18343,0.210607 -0.29893,0.550295 -0.11549,0.339689 -0.12908,0.815253 l 2.85339,0 q -0.0543,-0.889984 -0.42801,-1.331579 -0.37366,-0.448389 -1.00548,-0.448389 z"
           style="font-style:normal;font-variant:normal;font-weight:bold;font-stretch:normal;font-family:'Liberation Sans';-inkscape-font-specification:'Liberation Sans Bold';fill:#ffffff"
           id="path4492" />
        <path
           d="m 200.59367,96.121035 q 0,0.618234 -0.21061,1.195704 -0.20381,0.570677 -0.63182,1.012272 -0.42801,0.441595 -1.087,0.706552 -0.659,0.258164 -1.56257,0.258164 l -2.37782,0 0,3.369713 -2.00416,0 0,-9.572426 4.30045,0 q 0.91716,0 1.58975,0.224194 0.67258,0.217401 1.11417,0.618233 0.4416,0.400833 0.65221,0.957922 0.2174,0.557089 0.2174,1.229672 z m -2.01775,0.03397 q 0,-0.740521 -0.44839,-1.120972 -0.4416,-0.387245 -1.33158,-0.387245 l -2.0721,0 0,3.104754 2.12645,0 q 0.44839,0 0.7677,-0.115495 0.3261,-0.115494 0.5367,-0.326101 0.2174,-0.210607 0.31931,-0.502739 0.10191,-0.298926 0.10191,-0.652202 z"
           style="font-style:normal;font-variant:normal;font-weight:bold;font-stretch:normal;font-family:'Liberation Sans';-inkscape-font-specification:'Liberation Sans Bold';fill:#ffffff"
           id="path4494" />
        <path
           d="m 211.32104,97.833066 q 0,1.120972 -0.3329,2.038131 -0.33289,0.917163 -0.95792,1.569363 -0.62503,0.6522 -1.5286,1.00548 -0.89678,0.35327 -2.03133,0.35327 -1.2025,0 -2.10607,-0.36686 -0.89678,-0.37366 -1.50143,-1.03265 -0.60464,-0.66579 -0.91036,-1.576159 -0.29893,-0.910366 -0.29893,-1.990575 0,-1.120972 0.31251,-2.024544 0.31931,-0.903572 0.93075,-1.535392 0.61823,-0.638615 1.51501,-0.978303 0.90357,-0.346483 2.0721,-0.346483 1.16853,0 2.06531,0.346483 0.90357,0.346482 1.51501,0.985097 0.61823,0.638614 0.93754,1.542186 0.31931,0.896777 0.31931,2.010956 z m -2.04493,0 q 0,-0.754109 -0.18343,-1.358754 -0.17664,-0.61144 -0.52991,-1.046241 -0.35328,-0.434802 -0.8764,-0.66579 -0.51633,-0.237782 -1.2025,-0.237782 -0.69976,0 -1.22967,0.237782 -0.52312,0.230988 -0.8764,0.66579 -0.35327,0.434801 -0.52991,1.046241 -0.17664,0.604645 -0.17664,1.358754 0,0.747315 0.17664,1.372341 0.18343,0.618234 0.53671,1.066623 0.35327,0.44839 0.87639,0.69976 0.52312,0.25137 1.2093,0.25137 0.73372,0 1.26364,-0.25137 0.52991,-0.25817 0.8696,-0.70655 0.34648,-0.455187 0.50953,-1.07342 0.16305,-0.625027 0.16305,-1.358754 z"
           style="font-style:normal;font-variant:normal;font-weight:bold;font-stretch:normal;font-family:'Liberation Sans';-inkscape-font-specification:'Liberation Sans Bold';fill:#ffffff"
           id="path4496" />
        <path
           d="m 220.6353,99.905166 q 0,0.652204 -0.23779,1.188914 -0.23778,0.52991 -0.74052,0.91036 -0.49594,0.38045 -1.27723,0.59106 -0.77449,0.20381 -1.8479,0.20381 -0.95113,0 -1.67806,-0.16984 -0.72694,-0.16985 -1.25006,-0.50274 -0.51632,-0.3329 -0.84242,-0.82205 -0.31931,-0.49594 -0.46198,-1.13456 l 1.93622,-0.319304 q 0.0815,0.319304 0.23779,0.584264 0.15625,0.26496 0.428,0.46198 0.27855,0.19022 0.68617,0.29892 0.41442,0.10191 0.99869,0.10191 1.01906,0 1.55577,-0.30572 0.5435,-0.31251 0.5435,-0.97151 0,-0.394039 -0.2174,-0.645408 -0.2174,-0.25137 -0.57747,-0.41442 -0.36007,-0.163051 -0.82884,-0.271751 -0.46877,-0.1087 -0.9783,-0.210607 -0.40763,-0.09511 -0.81525,-0.197019 -0.40763,-0.101907 -0.78129,-0.244576 -0.36686,-0.142669 -0.68617,-0.339689 -0.31931,-0.197019 -0.55709,-0.482357 -0.23099,-0.292133 -0.36686,-0.679377 -0.12908,-0.387245 -0.12908,-0.910366 0,-0.713346 0.28534,-1.222879 0.28533,-0.509532 0.78807,-0.82884 0.50954,-0.326101 1.20929,-0.475564 0.69976,-0.149463 1.5286,-0.149463 0.93754,0 1.60333,0.149463 0.67259,0.14267 1.12098,0.441596 0.45518,0.298925 0.71334,0.754108 0.26496,0.448389 0.38725,1.053035 l -1.94302,0.264957 q -0.14947,-0.618234 -0.61144,-0.930747 -0.45518,-0.312513 -1.3112,-0.312513 -0.52991,0 -0.88319,0.09511 -0.34648,0.08832 -0.55709,0.244576 -0.20381,0.156257 -0.29213,0.366864 -0.0883,0.203813 -0.0883,0.434801 0,0.353276 0.16984,0.584264 0.16985,0.224195 0.47557,0.380452 0.30572,0.149463 0.72693,0.258163 0.42801,0.101906 0.93754,0.210607 0.44839,0.09511 0.88999,0.203813 0.44159,0.101906 0.84242,0.244576 0.40084,0.142669 0.74732,0.346482 0.34648,0.203813 0.59785,0.502739 0.25816,0.292132 0.40083,0.699758 0.14947,0.407627 0.14947,0.964716 z"
           style="font-style:normal;font-variant:normal;font-weight:bold;font-stretch:normal;font-family:'Liberation Sans';-inkscape-font-specification:'Liberation Sans Bold';fill:#ffffff"
           id="path4498" />
      </g>
    </g>
  </g>
</svg>
