<?xml version="1.0" encoding="UTF-8" standalone="no"?>
<svg
   xmlns:dc="http://purl.org/dc/elements/1.1/"
   xmlns:cc="http://creativecommons.org/ns#"
   xmlns:rdf="http://www.w3.org/1999/02/22-rdf-syntax-ns#"
   xmlns:svg="http://www.w3.org/2000/svg"
   xmlns="http://www.w3.org/2000/svg"
   xmlns:sodipodi="http://sodipodi.sourceforge.net/DTD/sodipodi-0.dtd"
   xmlns:inkscape="http://www.inkscape.org/namespaces/inkscape"
   height="96"
   width="96"
   id="svg2"
   xml:space="preserve"
   enable-background="new 0 0 90 90"
   viewBox="0 0 96.000001 96"
   y="0px"
   x="0px"
   version="1.1"
   inkscape:version="0.91 r13725"
   sodipodi:docname="canned-goods.svg"><sodipodi:namedview
     pagecolor="#ffffff"
     bordercolor="#666666"
     borderopacity="1"
     objecttolerance="10"
     gridtolerance="10"
     guidetolerance="10"
     inkscape:pageopacity="0"
     inkscape:pageshadow="2"
     inkscape:window-width="990"
     inkscape:window-height="743"
     id="namedview4733"
     showgrid="false"
     inkscape:zoom="3.125331"
     inkscape:cx="-18.230746"
     inkscape:cy="37.756001"
     inkscape:window-x="0"
     inkscape:window-y="27"
     inkscape:window-maximized="0"
     inkscape:current-layer="svg2" /><metadata
     id="metadata14"><rdf:RDF><cc:Work
         rdf:about=""><dc:format>image/svg+xml</dc:format><dc:type
           rdf:resource="http://purl.org/dc/dcmitype/StillImage" /><dc:title></dc:title><dc:creator><cc:Agent><dc:title>DKHN</dc:title></cc:Agent></dc:creator><dc:publisher><cc:Agent><dc:title>the Noun Project</dc:title></cc:Agent></dc:publisher></cc:Work></rdf:RDF></metadata><defs
     id="defs12" /><path
     style="fill:#ffffff"
     id="path4"
     d="m 58.938574,18.687455 c -0.64742,-0.676025 -5.074478,-1.781121 -12.398241,-1.781121 -7.323763,0 -11.750821,1.105096 -12.398241,1.781121 0.646467,0.676025 5.073524,1.78112 12.398241,1.78112 7.324717,-9.53e-4 11.751775,-1.105095 12.398241,-1.78112 z M 76.275898,49.009417 C 74.97629,46.376828 66.270919,45.653129 61.49393,45.653129 l 0,-27.970654 -0.170675,-0.569234 C 60.023647,14.4797 51.318276,13.756 46.541287,13.756 c -4.77699,0 -13.482361,0.722746 -14.782922,3.356288 l -0.169722,0.569234 0,27.970653 c -4.776989,0 -13.48236,0.722746 -14.782922,3.356288 l -0.169721,0.569234 0,29.98538 c 0,3.529823 6.428435,6.19197 14.952643,6.19197 8.524208,0 14.952644,-2.661193 14.952644,-6.191016 0,3.529823 6.428435,6.191969 14.952643,6.191969 8.524208,0 14.952643,-2.661193 14.952643,-6.191969 l 0,-29.98538 -0.170675,-0.569234 z M 46.540333,15.526632 c 1.414027,0 13.819896,0.08868 13.819896,3.159869 9.54e-4,3.071194 -12.404916,3.159869 -13.819896,3.159869 -1.414027,0 -13.819896,-0.08868 -13.819896,-3.159869 0,-3.071194 12.405869,-3.159869 13.819896,-3.159869 z M 17.767794,50.58363 c 0,-3.071194 12.404915,-3.159869 13.819896,-3.159869 l 9.53e-4,0 0,0.243141 c 0,0.390931 0.08295,0.77042 0.235513,1.137514 -0.07914,0 -0.155419,-0.0019 -0.235513,-0.0019 -7.323763,0 -11.750821,1.105096 -12.398241,1.781121 0.646467,0.676025 5.073525,1.781121 12.398241,1.781121 1.687679,0 3.218985,-0.05912 4.586291,-0.15828 1.043119,0.407141 2.235936,0.749444 3.549847,1.014515 -3.4688,0.495815 -7.378112,0.522513 -8.136138,0.522513 -1.41498,9.53e-4 -13.820849,-0.08772 -13.820849,-3.159869 z m 27.393791,28.980401 c 0,2.275982 -5.575061,4.812268 -13.572942,4.812268 -7.998834,0 -13.572942,-2.536286 -13.572942,-4.812268 l 0,-12.037822 c 1.416888,1.03263 4.910478,1.844051 9.317513,2.168238 0.143977,-2.227355 1.991842,-3.990359 4.255429,-3.990359 2.263588,0 4.110499,1.763004 4.25543,3.990359 4.407988,-0.324187 7.900625,-1.135608 9.317512,-2.168238 l 0,12.037822 z M 46.541287,52.47917 c -0.527281,0 -1.044073,-0.01144 -1.54847,-0.03337 -0.0057,0 -0.01144,-9.54e-4 -0.01716,-9.54e-4 -0.50249,-0.02193 -0.994491,-0.0534 -1.473144,-0.0944 -1.340608,-0.114419 -2.585867,-0.301304 -3.7148,-0.54349 l 0,0 c -0.393792,-0.08486 -0.772328,-0.176396 -1.137515,-0.273652 -0.0076,-0.0019 -0.0143,-0.0038 -0.02193,-0.0057 -0.357559,-0.0963 -0.700816,-0.197373 -1.028816,-0.304164 -0.01049,-0.0038 -0.02002,-0.0067 -0.03051,-0.01049 -0.324187,-0.105837 -0.634072,-0.217396 -0.927747,-0.332768 -0.01049,-0.0038 -0.02098,-0.0086 -0.03051,-0.0124 -0.291769,-0.115372 -0.569235,-0.235512 -0.829538,-0.359466 -0.0086,-0.0038 -0.01716,-0.0086 -0.02574,-0.0124 -0.260303,-0.123954 -0.504396,-0.252675 -0.731327,-0.383303 -0.0057,-0.0038 -0.01144,-0.0067 -0.01812,-0.01049 -0.227884,-0.132535 -0.437652,-0.266977 -0.629304,-0.40428 -0.0029,-0.0019 -0.0067,-0.0048 -0.0095,-0.0067 -0.192606,-0.13921 -0.367094,-0.280327 -0.522513,-0.422397 -9.54e-4,-9.53e-4 -0.0019,-0.0019 -0.0029,-0.0029 -0.155419,-0.143977 -0.291768,-0.289862 -0.40714,-0.436699 -0.303211,-0.386164 -0.466257,-0.778049 -0.466257,-1.163259 l 0,-12.036868 c 1.416887,1.03263 4.910477,1.844051 9.317512,2.168238 0.143977,-2.227355 1.991842,-3.990359 4.25543,-3.990359 2.263587,0 4.110499,1.763004 4.255429,3.990359 4.407988,-0.324187 7.900625,-1.135608 9.317513,-2.168238 l 0,12.037822 c 0,0.384256 -0.163047,0.777095 -0.466257,1.163258 l 0,0 c -0.115373,0.146838 -0.251722,0.292722 -0.407141,0.436699 -9.53e-4,9.54e-4 -0.0019,0.0019 -0.0029,0.0029 -0.154466,0.143023 -0.329908,0.28414 -0.522513,0.42335 -0.0029,0.0019 -0.0057,0.0048 -0.0086,0.0067 -0.191652,0.137303 -0.402373,0.272698 -0.630257,0.405234 -0.0057,0.0029 -0.01049,0.0067 -0.01621,0.0095 -0.22693,0.130628 -0.471024,0.259349 -0.731327,0.383303 -0.0086,0.0038 -0.01716,0.0086 -0.02574,0.01239 -0.260303,0.123954 -0.536816,0.24314 -0.829537,0.358513 -0.01049,0.0038 -0.02098,0.0086 -0.03147,0.01239 -0.293675,0.115373 -0.603559,0.226931 -0.927746,0.332768 -0.01049,0.0038 -0.02002,0.0067 -0.03051,0.01049 -0.328001,0.106791 -0.671257,0.207861 -1.027863,0.304163 -0.0076,0.0019 -0.01526,0.0048 -0.02288,0.0067 -0.364233,0.09726 -0.742769,0.188791 -1.136561,0.273652 -1.129886,0.24314 -2.375146,0.430024 -3.715754,0.54349 -0.479606,0.041 -0.971607,0.07247 -1.474096,0.09439 -0.0048,0 -0.01049,9.54e-4 -0.01526,9.54e-4 -0.506304,0.02002 -1.023096,0.03147 -1.550376,0.03147 z m 28.525585,27.084861 c 0,2.275982 -5.575061,4.812268 -13.572942,4.812268 -7.998835,0 -13.572942,-2.536286 -13.572942,-4.812268 l 0,-12.037822 c 1.416887,1.03263 4.910478,1.844051 9.317512,2.168238 0.143977,-2.227355 1.991843,-3.990359 4.25543,-3.990359 2.263587,0 4.110499,1.763004 4.255429,3.990359 4.407989,-0.324187 7.900626,-1.135608 9.317513,-2.168238 l 0,12.037822 z M 61.49393,53.744452 c -0.758025,0 -4.666384,-0.0267 -8.135184,-0.522513 1.31391,-0.26507 2.506727,-0.607373 3.549846,-1.014514 1.366353,0.09916 2.897659,0.157326 4.584384,0.157326 7.324717,0 11.751775,-1.105096 12.398242,-1.781121 -0.646467,-0.676025 -5.073525,-1.781121 -12.397288,-1.781121 -0.08009,0 -0.155419,0.0019 -0.234559,0.0019 0.151605,-0.367094 0.234559,-0.746583 0.234559,-1.137514 l 0,-0.243141 c 1.416887,0 13.818943,0.08868 13.818943,3.159869 9.53e-4,3.072148 -12.404916,3.160822 -13.818943,3.160822 z"
     inkscape:connector-curvature="0" /></svg>