<?xml version="1.0" encoding="UTF-8" standalone="no"?>
<svg
   xmlns:dc="http://purl.org/dc/elements/1.1/"
   xmlns:cc="http://creativecommons.org/ns#"
   xmlns:rdf="http://www.w3.org/1999/02/22-rdf-syntax-ns#"
   xmlns:svg="http://www.w3.org/2000/svg"
   xmlns="http://www.w3.org/2000/svg"
   height="96"
   width="96"
   id="svg2"
   xml:space="preserve"
   enable-background="new 0 0 100 100"
   viewBox="0 0 96 96"
   y="0px"
   x="0px"
   version="1.1"><metadata
     id="metadata16"><rdf:RDF><cc:Work
         rdf:about=""><dc:format>image/svg+xml</dc:format><dc:type
           rdf:resource="http://purl.org/dc/dcmitype/StillImage" /><dc:title></dc:title><dc:creator><cc:Agent><dc:title>Agniraj Chatterji</dc:title></cc:Agent></dc:creator><cc:license
           rdf:resource="http://creativecommons.org/licenses/by/3.0/" /><dc:publisher><cc:Agent><dc:title>the Noun Project</dc:title></cc:Agent></dc:publisher></cc:Work><cc:License
         rdf:about="http://creativecommons.org/licenses/by/3.0/"><cc:permits
           rdf:resource="http://creativecommons.org/ns#Reproduction" /><cc:permits
           rdf:resource="http://creativecommons.org/ns#Distribution" /><cc:requires
           rdf:resource="http://creativecommons.org/ns#Notice" /><cc:requires
           rdf:resource="http://creativecommons.org/ns#Attribution" /><cc:permits
           rdf:resource="http://creativecommons.org/ns#DerivativeWorks" /></cc:License></rdf:RDF></metadata><defs
     id="defs14" /><g
     style="fill:#ffffff"
     transform="matrix(0.80000402,0,0,0.80000402,7.999799,31.200516)"
     id="g4144"><path
       style="fill:#ffffff"
       d="M 59.576,39.385 C 58.864,37.533 55.302,39.67 53.592,38.673 52.116,37.812 50.434,37.907 50,37.949 c -0.434,-0.042 -2.116,-0.137 -3.592,0.724 -1.71,0.997 -5.272,-1.14 -5.984,0.712 -0.712,1.852 -0.472,7.409 2.899,8.121 3.288,0.695 3.512,1.659 6.564,1.705 l 0,0.004 c 0.04,0 0.074,-0.002 0.113,-0.002 0.039,0 0.073,0.002 0.113,0.002 l 0,-0.004 c 3.052,-0.046 3.276,-1.01 6.564,-1.705 3.37,-0.713 3.611,-6.269 2.899,-8.121 z"
       id="path4" /><path
       style="fill:#ffffff"
       d="m 94.114,-0.659 c -1.587,-1.199 -4.155,-2.895 -7.05,-3.863 -3.714,-1.242 -9.613,1.637 -12.118,3.019 -0.65,0.359 -1.46,0.135 -1.832,-0.508 -1.268,-2.191 -4.374,-6.822 -8.984,-9.047 0,0 -2.904,-1.82 -6.65,-1.505 -3.719,0.312 -3.775,1.411 -7.308,1.427 -0.061,0 -0.113,-0.003 -0.172,-0.004 -0.059,0.001 -0.111,0.004 -0.172,0.004 -3.534,-0.016 -3.589,-1.114 -7.308,-1.427 -3.746,-0.314 -6.65,1.505 -6.65,1.505 -4.61,2.225 -7.716,6.856 -8.984,9.047 -0.372,0.643 -1.182,0.867 -1.832,0.508 -2.505,-1.382 -8.404,-4.262 -12.118,-3.019 -2.895,0.969 -5.463,2.665 -7.05,3.863 -0.982,0.742 -1.192,2.162 -0.405,3.109 5.88,7.075 15.571,7.034 19.266,6.725 0.774,-0.065 1.435,0.539 1.459,1.315 0.155,5.049 3.097,9.598 7.669,15.959 5.016,6.98 1.963,7.852 3.053,18.539 1.013,9.925 11.382,9.609 12.9,9.609 0.048,0 0.106,0 0.172,10e-4 0.066,0 0.124,-10e-4 0.172,-10e-4 1.518,0 11.888,0.316 12.9,-9.609 1.091,-10.687 -1.963,-11.56 3.053,-18.539 4.572,-6.361 7.513,-10.91 7.669,-15.959 0.024,-0.777 0.685,-1.38 1.459,-1.315 3.695,0.308 13.386,0.349 19.266,-6.725 0.787,-0.946 0.577,-2.367 -0.405,-3.109 z M 55.735,20.179 c -2.593,5.398 -1.169,13.25 2.046,15.213 3.215,1.963 3.467,3.95 3.467,3.95 0.512,2.341 0.402,8.645 -3.467,9.463 -3.775,0.798 -4.032,1.905 -7.537,1.958 l 0,0.005 c -0.026,0 -0.049,-10e-4 -0.072,-10e-4 -0.024,10e-4 -0.047,10e-4 -0.072,10e-4 l 0,-0.005 c -0.035,-10e-4 -0.065,-0.003 -0.099,-0.004 -0.034,10e-4 -0.064,0.003 -0.099,0.004 l 0,0.005 c -0.026,0 -0.049,-10e-4 -0.072,-10e-4 -0.024,10e-4 -0.047,10e-4 -0.072,10e-4 l 0,-0.005 c -3.504,-0.053 -3.761,-1.16 -7.537,-1.958 -3.869,-0.818 -3.979,-7.122 -3.467,-9.463 0,0 0.252,-1.987 3.467,-3.95 3.215,-1.963 4.64,-9.815 2.046,-15.213 -2.364,-4.921 -7.457,-16.632 -8.281,-27.962 -0.09,-3.323 2.632,-3.226 3.165,-3.175 1.391,0.16 3.01,0.505 4.413,1.227 2.982,1.535 5.804,1.58 6.265,1.576 0.039,0 0.101,0 0.172,-0.001 0.071,0.001 0.133,0.002 0.172,0.001 0.462,0.004 3.283,-0.041 6.265,-1.576 1.403,-0.722 3.022,-1.067 4.413,-1.227 0.533,-0.051 3.255,-0.147 3.165,3.175 -0.824,11.329 -5.917,23.041 -8.281,27.962 z"
       id="path6" /></g></svg>