<?xml version="1.0" encoding="UTF-8" standalone="no"?>
<svg
   xmlns:dc="http://purl.org/dc/elements/1.1/"
   xmlns:cc="http://creativecommons.org/ns#"
   xmlns:rdf="http://www.w3.org/1999/02/22-rdf-syntax-ns#"
   xmlns:svg="http://www.w3.org/2000/svg"
   xmlns="http://www.w3.org/2000/svg"
   xmlns:sodipodi="http://sodipodi.sourceforge.net/DTD/sodipodi-0.dtd"
   xmlns:inkscape="http://www.inkscape.org/namespaces/inkscape"
   height="96"
   width="96"
   id="svg2"
   xml:space="preserve"
   enable-background="new 0 0 100 100"
   viewBox="0 0 96 96"
   y="0px"
   x="0px"
   version="1.1"
   inkscape:version="0.91 r13725"
   sodipodi:docname="fresh-fruit-veg.svg"><sodipodi:namedview
     pagecolor="#ffffff"
     bordercolor="#666666"
     borderopacity="1"
     objecttolerance="10"
     gridtolerance="10"
     guidetolerance="10"
     inkscape:pageopacity="0"
     inkscape:pageshadow="2"
     inkscape:window-width="1078"
     inkscape:window-height="622"
     id="namedview8"
     showgrid="false"
     fit-margin-top="0"
     fit-margin-left="0"
     fit-margin-right="0"
     fit-margin-bottom="0"
     inkscape:zoom="2.7124051"
     inkscape:cx="-12.345487"
     inkscape:cy="43.503827"
     inkscape:window-x="1340"
     inkscape:window-y="194"
     inkscape:window-maximized="0"
     inkscape:current-layer="svg2" /><metadata
     id="metadata18"><rdf:RDF><cc:Work
         rdf:about=""><dc:format>image/svg+xml</dc:format><dc:type
           rdf:resource="http://purl.org/dc/dcmitype/StillImage" /><dc:title></dc:title><dc:creator><cc:Agent><dc:title>Nana Faisal</dc:title></cc:Agent></dc:creator><dc:publisher><cc:Agent><dc:title>the Noun Project</dc:title></cc:Agent></dc:publisher><dc:rights><cc:Agent><dc:title>Creative Commons</dc:title></cc:Agent></dc:rights><cc:license
           rdf:resource="http://creativecommons.org/licenses/by/3.0/" /></cc:Work><cc:License
         rdf:about="http://creativecommons.org/licenses/by/3.0/"><cc:permits
           rdf:resource="http://creativecommons.org/ns#Reproduction" /><cc:permits
           rdf:resource="http://creativecommons.org/ns#Distribution" /><cc:requires
           rdf:resource="http://creativecommons.org/ns#Notice" /><cc:requires
           rdf:resource="http://creativecommons.org/ns#Attribution" /><cc:permits
           rdf:resource="http://creativecommons.org/ns#DerivativeWorks" /></cc:License></rdf:RDF></metadata><defs
     id="defs16" /><g
     style="fill:#ffffff"
     transform="matrix(0.80358273,0,0,0.80358273,6.9023518,10.261242)"
     id="g4"><path
       style="fill:#ffffff"
       id="path6"
       d="m 90.369,31.38 c -6.661,-9.368 -20.817,-7.494 -20.817,-7.494 5.204,7.286 1.874,12.282 1.874,12.282 -4.372,0.417 -10.409,-4.164 -10.409,-4.164 1.041,5.205 -3.955,8.952 -3.955,8.952 0,-3.123 -7.287,-7.494 -7.287,-7.494 -1.666,4.58 -11.034,6.662 -11.034,6.662 -0.833,-5.205 0.625,-8.119 0.625,-8.119 -3.539,3.123 -11.242,2.499 -11.242,2.499 0.833,-8.119 5.413,-10.826 5.413,-10.826 C -8.515,21.596 -1.645,94.459 53.105,90.295 107.856,86.132 97.031,40.749 90.369,31.38 Z"
       inkscape:connector-curvature="0" /><path
       style="fill:#ffffff"
       id="path8"
       d="m 34.37,29.507 c 4.788,1.319 9.715,-2.637 9.715,-2.637 -2.221,2.637 -1.179,7.147 -1.179,7.147 3.816,-0.208 5.551,-5.413 5.551,-5.413 3.817,0.07 8.258,6.176 8.258,6.176 3.054,-2.845 2.29,-6.731 2.29,-6.731 4.58,3.539 9.507,2.637 9.507,2.637 -0.208,-4.303 -4.648,-6.592 -4.648,-6.592 5.412,-3.747 3.539,-6.8 3.539,-6.8 -2.776,4.302 -8.675,4.649 -8.675,4.649 2.983,-3.123 1.11,-9.507 1.11,-9.507 -1.111,2.567 -5.829,9.992 -5.898,7.286 -0.003,-0.125 0.002,-0.268 0.017,-0.428 C 54.251,15.957 58.103,5.219 58.103,5.219 57.548,3.415 55.328,3.137 54.148,3.761 52.968,4.385 50.33,19.445 50.33,19.445 c -3.609,-0.971 -3.4,-8.12 -3.4,-8.12 -2.914,1.666 -2.845,9.438 -2.845,9.438 -6.731,-0.208 -9.16,-4.997 -9.16,-4.997 -0.208,7.286 6.037,8.119 6.037,8.119 -4.025,0.14 -6.592,5.622 -6.592,5.622 z"
       inkscape:connector-curvature="0" /></g></svg>