<?xml version="1.0" encoding="UTF-8" standalone="no"?>
<svg
   xmlns:dc="http://purl.org/dc/elements/1.1/"
   xmlns:cc="http://creativecommons.org/ns#"
   xmlns:rdf="http://www.w3.org/1999/02/22-rdf-syntax-ns#"
   xmlns:svg="http://www.w3.org/2000/svg"
   xmlns="http://www.w3.org/2000/svg"
   xmlns:sodipodi="http://sodipodi.sourceforge.net/DTD/sodipodi-0.dtd"
   xmlns:inkscape="http://www.inkscape.org/namespaces/inkscape"
   version="1.1"
   x="0px"
   y="0px"
   viewBox="0 0 96 96"
   enable-background="new 0 0 90 90"
   xml:space="preserve"
   id="svg2"
   width="96"
   height="96"
   inkscape:version="0.91 r13725"
   sodipodi:docname="videos.svg"><sodipodi:namedview
     pagecolor="#ffffff"
     bordercolor="#666666"
     borderopacity="1"
     objecttolerance="10"
     gridtolerance="10"
     guidetolerance="10"
     inkscape:pageopacity="0"
     inkscape:pageshadow="2"
     inkscape:window-width="1155"
     inkscape:window-height="836"
     id="namedview4190"
     showgrid="false"
     inkscape:zoom="3.9047619"
     inkscape:cx="2.304878"
     inkscape:cy="23.5"
     inkscape:window-x="0"
     inkscape:window-y="27"
     inkscape:window-maximized="0"
     inkscape:current-layer="svg2" /><metadata
     id="metadata22"><rdf:RDF><cc:Work
         rdf:about=""><dc:format>image/svg+xml</dc:format><dc:type
           rdf:resource="http://purl.org/dc/dcmitype/StillImage" /><dc:creator><cc:Agent><dc:title>Zane Ogle</dc:title></cc:Agent></dc:creator><dc:publisher><cc:Agent><dc:title>the Noun Project</dc:title></cc:Agent></dc:publisher><dc:title></dc:title></cc:Work></rdf:RDF></metadata><defs
     id="defs20" /><g
     id="g4732"
     style="fill:#ffffff"
     transform="matrix(0.85714286,0,0,0.85714286,12,27.857143)"><polygon
       transform="translate(-3,-21)"
       id="polygon4"
       points="41.9,50.9 49.6,45.5 41.9,40.2 "
       style="fill:#ffffff" /><path
       id="path6"
       d="m 1,5 82,0 0,7 1,0 L 84,0 0,0 0,12 1,12 1,5 Z M 42.1,1.7 44.4,4 39.8,4 42.1,1.7 Z"
       style="fill:#ffffff"
       inkscape:connector-curvature="0" /><path
       id="path8"
       d="M 82,13 82,6 2,6 2,13 0,13 0,14.8 0,44.6 C 0,45.8 0.9,47 2.1,47 L 82,47 c 1.2,0 1.9,-1.2 1.9,-2.4 L 83.9,13 82,13 Z M 21,33.3 C 21,34.5 20.3,35 19,35 L 7.8,35 C 6,35 5.3,34 4.7,33 3.6,30.9 2.5,28 2.5,24.9 2.5,21.3 3.6,18.1 4.7,16 5.3,15 6.6,14 7.8,14 L 19,14 c 1.2,0 2,0.8 2,2 l 0,17.3 z M 61,33.1 C 61,34.4 60.3,35 59.1,35 L 24.9,35 C 23.7,35 23,34.4 23,33.1 l 0,-17 C 23,14.8 23.7,14 24.9,14 l 34.2,0 c 1.2,0 1.9,0.9 1.9,2.1 l 0,17 z M 79.5,33 c -0.5,1 -1.3,2 -3.1,2 L 65.2,35 C 64,35 63,34.5 63,33.3 L 63,16 c 0,-1.2 1,-2 2.2,-2 l 11.2,0 c 1.2,0 2.5,1 3.1,2.1 1.1,2.1 2.2,5.2 2.2,8.9 0,3.1 -1.1,5.9 -2.2,8 z"
       style="fill:#ffffff"
       inkscape:connector-curvature="0" /><path
       id="path10"
       d="m 64,31.1 0,2 c 0,1.1 0.5,0.9 1.6,0.9 l 6.9,0 c 2.5,-2 4.1,-5.6 4.1,-9.5 0,-3.9 -1.6,-6.4 -4.1,-9.5 l -6.9,0 C 64.5,15 64,16 64,17.2 l 0,2 c 2.1,0.7 4.6,3.1 4.6,6 0,2.8 -2.5,5.2 -4.6,5.9 z"
       style="fill:#ffffff"
       inkscape:connector-curvature="0" /><path
       id="path12"
       d="m 20,31.1 0,2 C 20,34.2 19.1,34 17.9,34 L 11,34 C 8.5,32 6.9,28.4 6.9,24.5 6.9,20.6 8.5,18 11,15 l 6.9,0 c 1.1,0 2.1,1 2.1,2.2 l 0,2 c -2,0.7 -4.6,3.1 -4.6,6 0,2.8 2.6,5.2 4.6,5.9 z"
       style="fill:#ffffff"
       inkscape:connector-curvature="0" /></g></svg>